<svg xmlns="http://www.w3.org/2000/svg" width="1080" height="480" viewBox="0 0 1080 480" role="img" aria-labelledby="title desc">
  <title id="title">From U(2) single-qubit gates to SU(2), Sp(1), and SO(3)</title>
  <desc id="desc">Detailed schematic separating full single-qubit gates in U(2), their global-phase quotient classes, chosen SU(2) representatives, equivalent unit-quaternion representatives in Sp(1), and the induced Bloch-sphere rotation action in SO(3).</desc>
  <defs>
    <marker id="arrow" markerWidth="12" markerHeight="10" refX="10" refY="5" orient="auto">
      <polygon points="0,0 12,5 0,10" fill="#35556c"/>
    </marker>
  </defs>
  <style>
    .box { stroke-width: 2.2; rx: 14; ry: 14; }
    .step { font: 700 21px Georgia, serif; fill: #1b2e3b; }
    .label { font: 18px Georgia, serif; fill: #1b1b1b; }
    .small { font: 15px Arial, sans-serif; fill: #31444d; }
    .tiny { font: 13px Arial, sans-serif; fill: #4a5d66; }
    .arrow { stroke: #35556c; stroke-width: 3; fill: none; marker-end: url(#arrow); }
    .guide { stroke: #7f98a6; stroke-width: 2; fill: none; stroke-dasharray: 8 6; }
  </style>

  <rect x="0" y="0" width="1080" height="480" fill="#ffffff"/>

  <rect class="box" x="36" y="44" width="230" height="160" fill="#f9ede2" stroke="#b57b42"/>
  <text class="step" x="58" y="76">Step 1: full gate</text>
  <text class="label" x="58" y="108">U &#8712; U(2)</text>
  <text class="small" x="58" y="138">physical single-qubit unitary</text>
  <text class="tiny" x="58" y="164">includes an overall phase factor</text>

  <rect class="box" x="312" y="44" width="240" height="160" fill="#f7f0ff" stroke="#7750a8"/>
  <text class="step" x="334" y="76">Step 2: gate class</text>
  <text class="label" x="334" y="108">[U] &#8712; U(2)/U(1)</text>
  <text class="small" x="334" y="138">U ~ e&#8305;&#967; U</text>
  <text class="tiny" x="334" y="164">same action on pure states</text>

  <rect class="box" x="598" y="44" width="220" height="160" fill="#edf4ff" stroke="#3f6fa8"/>
  <text class="step" x="620" y="76">Step 3: choose rep</text>
  <text class="label" x="620" y="108">V &#8712; SU(2)</text>
  <text class="small" x="620" y="138">U = e&#8305;&#967; V, det V = 1</text>
  <text class="tiny" x="620" y="164">representative unique up to sign</text>

  <rect class="box" x="846" y="44" width="198" height="160" fill="#f2edff" stroke="#6f4ba8"/>
  <text class="step" x="866" y="76">Step 4: quaternion</text>
  <text class="label" x="866" y="108">q &#8712; Sp(1)</text>
  <text class="small" x="866" y="138">q = a + b i + c j + d k</text>
  <text class="tiny" x="866" y="164">a&#178; + b&#178; + c&#178; + d&#178; = 1</text>

  <path class="arrow" d="M266 126 H312"/>
  <text class="tiny" x="289" y="112" text-anchor="middle">remove phase</text>

  <path class="arrow" d="M552 126 H598"/>
  <text class="tiny" x="575" y="112" text-anchor="middle">det = 1 rep</text>

  <path class="arrow" d="M818 126 H846"/>
  <text class="tiny" x="832" y="112" text-anchor="middle">&#934;</text>

  <rect class="box" x="374" y="276" width="266" height="130" fill="#eef8ee" stroke="#4d8a57"/>
  <text class="step" x="396" y="310">Induced spatial action</text>
  <text class="label" x="396" y="343">&#961; : Sp(1) &#8594; SO(3)</text>
  <text class="small" x="396" y="371">v &#8614; q v q&#8315;&#185; on Im(H) &#8773; R&#179;</text>

  <rect class="box" x="686" y="276" width="226" height="130" fill="#f8f8f8" stroke="#5c6b73"/>
  <text class="step" x="708" y="310">Rotation class</text>
  <text class="label" x="708" y="343">SO(3)</text>
  <text class="small" x="708" y="371">kernel {+1, -1}</text>

  <path class="arrow" d="M945 204 V276"/>
  <text class="tiny" x="962" y="244">conjugation action</text>
  <path class="arrow" d="M640 341 H686"/>

  <path class="guide" d="M708 204 V254"/>
  <text class="tiny" x="540" y="444" text-anchor="middle">Decomposed view: U(2) gives full gates; SU(2) gives determinant-one representatives;</text>
  <text class="tiny" x="540" y="462" text-anchor="middle">Sp(1) is an equivalent unit-quaternion model; SO(3) is the induced Bloch-sphere rotation action.</text>
</svg>
